 <svg  version="1.0" xmlns="http://www.w3.org/2000/svg"  width="250.000000pt" height="250.000000pt" viewBox="0 0 250.000000 250.000000"  preserveAspectRatio="xMidYMid meet">  <g transform="translate(0.000000,250.000000) scale(0.050000,-0.050000)" fill="#ac8951" stroke="none"> <path d="M2885 4065 c-32 -41 -174 -241 -315 -445 -142 -203 -288 -408 -326 -454 -69 -86 -71 -126 -4 -126 87 0 105 -22 59 -71 -43 -46 -43 -46 -2 -67 66 -35 138 -26 172 22 28 40 38 42 92 22 84 -32 93 -21 509 553 374 518 385 542 241 541 -66 -1 -74 -10 -406 -480 -328 -464 -357 -492 -432 -420 -10 9 131 224 315 480 360 503 353 490 287 507 -94 25 -132 13 -190 -62z"/> <path d="M1901 4101 c-15 -10 -85 -29 -155 -42 -173 -32 -180 -13 143 -418 335 -419 302 -391 355 -298 l42 73 -216 253 c-118 139 -211 256 -207 260 83 82 255 -60 482 -396 11 -16 32 -3 65 37 61 74 62 88 5 150 -25 28 -112 129 -193 225 -152 182 -225 217 -321 156z"/> <path d="M1464 3934 c-65 -68 -64 -71 185 -619 l230 -504 -43 -45 c-54 -58 -70 -58 -88 -1 -7 25 -103 240 -211 479 -108 239 -197 442 -197 452 0 69 -57 94 -108 46 -80 -76 -69 -118 184 -663 130 -280 249 -539 263 -575 l27 -66 66 64 c56 54 68 59 77 31 6 -18 16 -48 22 -67 9 -28 20 -24 73 29 58 58 61 68 39 117 -23 49 -20 59 26 102 68 63 84 13 -208 671 -278 629 -272 618 -337 549z"/> <path d="M3361 3636 c-142 -367 -190 -491 -210 -539 -12 -29 137 -81 157 -54 2 4 54 144 113 312 116 323 118 326 182 266 48 -45 50 -36 -63 -321 -121 -305 -120 -280 -12 -280 50 0 92 2 92 5 0 9 96 280 139 395 65 172 59 190 -116 376 l-156 166 -126 -326z"/> <path d="M1208 2968 c-12 -5 -119 -26 -237 -46 -118 -20 -226 -49 -241 -64 -22 -23 -130 -386 -130 -436 0 -8 88 1 195 20 107 19 317 50 465 69 318 41 289 28 252 117 -35 85 -30 85 -332 31 -316 -57 -380 -66 -380 -55 0 26 46 136 57 138 7 0 31 4 53 8 22 4 144 23 270 42 273 40 249 27 207 116 -34 71 -99 93 -179 60z"/> <path d="M2966 2927 c6 -33 14 -72 18 -88 4 -22 -11 -27 -59 -23 -71 7 -76 -4 -44 -89 25 -66 52 -86 114 -87 33 0 45 -12 45 -45 1 -98 8 -100 634 -167 328 -36 622 -70 654 -77 56 -11 57 -10 45 64 -18 110 -30 114 -547 163 -692 65 -633 52 -657 150 l-15 58 108 -15 c211 -28 1048 -108 1055 -101 24 25 -24 154 -63 170 -24 10 -305 41 -624 69 -319 29 -602 58 -628 65 -45 11 -47 8 -36 -47z"/> <path d="M600 2274 c0 -106 14 -110 621 -170 l567 -55 15 -58 c18 -67 5 -98 -36 -83 -16 6 -254 34 -530 62 -276 28 -518 53 -538 56 -20 2 -37 -3 -38 -11 -9 -115 40 -173 159 -186 50 -5 297 -27 550 -50 253 -22 504 -45 558 -52 105 -14 109 -6 59 123 -11 28 -2 32 55 27 62 -6 67 -3 61 43 -12 86 -41 120 -101 120 -50 0 -59 9 -71 69 -15 83 -25 90 -136 102 -47 5 -301 32 -565 59 -264 28 -514 56 -555 62 -74 11 -75 11 -75 -58z"/> <path d="M4278 2272 c-4 -4 -188 -32 -408 -62 -220 -30 -411 -58 -425 -62 -49 -13 52 -169 102 -158 63 15 580 110 600 110 14 0 -1 -119 -18 -137 -11 -12 -451 -82 -514 -83 -30 0 -55 -9 -55 -21 0 -16 50 -129 68 -152 1 -2 47 5 102 16 110 21 282 52 390 69 102 16 148 78 195 258 23 88 48 176 56 195 12 32 -64 54 -93 27z"/> <path d="M3024 2215 c-48 -52 -55 -97 -24 -156 17 -31 11 -44 -31 -72 -43 -27 -51 -46 -43 -95 11 -77 497 -1172 519 -1172 9 0 40 22 69 48 63 59 76 19 -205 638 l-215 477 51 51 52 52 32 -78 c100 -243 443 -987 455 -988 24 0 116 108 116 137 0 14 -28 86 -62 160 -159 340 -421 912 -449 979 l-31 74 -54 -65 c-57 -69 -84 -82 -84 -39 0 73 -49 98 -96 49z"/> <path d="M2509 1779 c-30 -33 -52 -39 -111 -29 -87 15 -40 69 -508 -576 -369 -510 -352 -477 -269 -508 93 -35 91 -37 440 455 248 349 336 459 367 459 115 -1 104 -24 -236 -499 -350 -489 -350 -490 -300 -509 132 -51 122 -61 560 564 164 235 310 444 325 464 24 34 20 39 -46 51 -84 16 -102 35 -61 69 43 36 37 74 -15 87 -76 21 -107 15 -146 -28z"/> <path d="M1265 1399 c-119 -329 -122 -307 73 -509 138 -142 180 -161 182 -86 0 19 255 668 292 744 41 85 37 92 -59 92 l-87 0 -103 -285 c-57 -157 -104 -296 -103 -310 0 -39 -28 -30 -79 24 -28 30 -42 63 -35 85 9 32 144 377 184 471 11 28 4 35 -33 35 -26 0 -65 5 -88 12 -37 9 -51 -18 -144 -273z"/> <path d="M2727 1353 l-43 -66 219 -256 c121 -140 217 -258 213 -261 -74 -73 -146 -31 -326 191 l-179 222 -46 -57 c-69 -86 -82 -64 288 -491 58 -68 103 -69 327 -12 225 58 223 44 44 261 -87 105 -219 269 -293 364 -154 197 -147 193 -204 105z"/> </g> </svg> 